<svg width="80" height="80" fill="none" xmlns="http://www.w3.org/2000/svg"><path d="M51.361 48.5h-2.196m2.196 0c0-3.133-1.081-5.883-3.246-8.05m3.246 8.05c-.066 6.19-5.13 11.25-11.336 11.25-6.23 0-11.286-5.138-11.286-11.35 0-6.177 5.088-11.35 11.286-11.35m0 0v4.051m0-4.051c3.096 0 5.827 1.167 8.09 3.4m0 0L46.468 42m-20.827-8.95l-.149-8.3c0-7.273 6.493-14.25 14.558-14.25s14.508 6.977 14.508 14.101l-.1 8.449m-28.817 0C21.646 36.85 19 42.825 19 48.4c0 11.556 9.45 21.1 21.025 21.1C51.58 69.5 61 59.92 61 48.4c0-5.953-2.405-11.146-6.541-15.35m-28.818 0c7.963-7.573 20.841-7.523 28.818 0m-14.434 12.1c1.737 0 3.246 1.505 3.246 3.25 0 1.716-1.53 3.25-3.246 3.25-1.727 0-3.197-1.549-3.197-3.25 0-1.73 1.448-3.25 3.197-3.25z" stroke="#FF7800" stroke-width="1.5" stroke-linecap="round" stroke-linejoin="round"/></svg>