<svg width="80" height="80" fill="none" xmlns="http://www.w3.org/2000/svg"><path d="M28.242 42.656L12.684 58.214m38.811-2.88l3.2 3.17a2 2 0 002.823-.008l6.932-6.947m-24.04-.12a19.532 19.532 0 01-2.917-1.064L32.9 54.958l-6.208-.01v4.893a2.4 2.4 0 01-2.4 2.4h-4.99v5.36a2.4 2.4 0 01-2.4 2.4H11.11a4 4 0 01-4-4.004l.007-5.67a9 9 0 012.636-6.353l16.422-16.422c-.62-2.05-.93-4.202-.93-6.459 0-11.491 9.394-21.095 20.93-21.095 11.531 0 20.93 9.614 20.93 21.095 0 2.69-.52 5.28-1.466 7.668m-15.071-6.887c2.828 0 5.168-2.397 5.168-5.208 0-2.848-2.308-5.209-5.168-5.209-2.824 0-5.168 2.393-5.168 5.209 0 2.78 2.377 5.208 5.168 5.208zm7.326 8.057c-8.272 0-15 6.773-15 15.035 0 8.229 6.75 15.036 15 15.036 8.217 0 15-6.83 15-15.036 0-8.239-6.76-15.035-15-15.035z" stroke="#FF7800" stroke-width="1.5" stroke-linecap="round" stroke-linejoin="round"/></svg>