<svg width="80" height="80" fill="none" xmlns="http://www.w3.org/2000/svg"><path d="M54.1 24.95V19.7m0 0l-9.05-9m9.05 9h-6.05a3 3 0 01-3-3v-6m0 0h-27.3a6 6 0 00-6 6v40.6a6 6 0 006 6H31.1m17.55-1.25c-2.4-2.7-3.583-6.367-3.55-11 0-4.088 3.46-7.15 7.45-7.15 4.658 0 7.55 3.677 7.55 8.05m-4 11.25c-2.533-1.267-4.35-2.733-5.45-4.4-1.3-1.933-1.9-4.433-1.8-7.5 0-2.184 1.782-3.85 3.95-3.85 2.079 0 4 1.751 4 3.85 0 2.259.569 4.75 3.3 4.75 1.931 0 3.55-1.367 3.55-3.35.443-6.53-4.162-12.9-11.1-12.9-4.497 0-8.712 2.729-10.05 7.1-1.167 3.767-1.167 7.483 0 11.15m23.35-13.6c-2.495-5.2-7.353-8.75-13.25-8.75-6.638 0-11.795 4.308-13.7 10.5m13.75 5.5c.167 5.267 2.75 8.05 7.75 8.35M18.85 51.2h7.4m-7.4-22.5H38.5M18.85 39.95H28m24.35-12.4c-12.016 0-21.8 9.93-21.8 21.9 0 11.946 9.829 21.85 21.8 21.85 11.97 0 21.9-9.86 21.9-21.85 0-12.015-9.885-21.9-21.9-21.9z" stroke="#FF7800" stroke-width="1.5" stroke-linecap="round" stroke-linejoin="round"/></svg>